Coordinates
version=1
nRows=20
nColumns=38
inDegrees=no

Units are S.I. units (second, meters, Newtons, ...)
If the header above contains a line with 'inDegrees', this indicates whether rotational values are in degrees (yes) or radians (no).

endheader
time	pelvis_tilt	pelvis_list	pelvis_rotation	pelvis_tx	pelvis_ty	pelvis_tz	hip_flexion_r	hip_adduction_r	hip_rotation_r	knee_angle_r	ankle_angle_r	subtalar_angle_r	mtp_angle_r	hip_flexion_l	hip_adduction_l	hip_rotation_l	knee_angle_l	ankle_angle_l	subtalar_angle_l	mtp_angle_l	lumbar_extension	lumbar_bending	lumbar_rotation	arm_flex_r	arm_add_r	arm_rot_r	elbow_flex_r	pro_sup_r	wrist_flex_r	wrist_dev_r	arm_flex_l	arm_add_l	arm_rot_l	elbow_flex_l	pro_sup_l	wrist_flex_l	wrist_dev_l
5	2.67548	1.46439	-1.27119	0.753667	1.34565	0.942367	-0.2679	0.101258	-0.0976901	0.0363955	0.00984136	0	0	0.34995	-0.181863	-0.306215	0.518218	-0.0242936	0	0	-0.29288	-0.00544766	0.154283	0.812209	-0.247979	0.485815	1.18863	1.5708	0	0	0.653035	-0.237189	-0.0963178	1.63297	0.872657	0	0
5.01	2.6785	1.46482	-1.27465	0.753594	1.35192	0.941537	-0.280584	0.0999262	-0.0934796	0.0268588	0.0112976	0	0	0.345176	-0.17423	-0.311114	0.47411	-0.0231437	0	0	-0.292182	-0.00600545	0.153277	0.816078	-0.245829	0.485748	1.1828	1.5708	0	0	0.654316	-0.23671	-0.0977323	1.63141	0.872657	0	0
5.02	2.67738	1.46593	-1.27371	0.753459	1.35819	0.940546	-0.291435	0.0986583	-0.0904691	0.0192404	0.0141485	0	0	0.340314	-0.166107	-0.314214	0.429274	-0.0211557	0	0	-0.290545	-0.00635473	0.152294	0.819466	-0.243997	0.485228	1.17764	1.5708	0	0	0.655747	-0.236257	-0.0981455	1.63091	0.872657	0	0
5.03	2.67449	1.46696	-1.27049	0.753266	1.3645	0.939482	-0.302064	0.0975796	-0.0877026	0.0122154	0.0175646	0	0	0.334667	-0.157764	-0.315826	0.38411	-0.0194604	0	0	-0.28879	-0.00648834	0.151088	0.822676	-0.242575	0.484555	1.17285	1.5708	0	0	0.657493	-0.23578	-0.0977355	1.63087	0.872657	0	0
5.04	2.67009	1.468	-1.26536	0.752993	1.37084	0.938357	-0.312162	0.0966049	-0.0855638	0.00614883	0.0214767	0	0	0.328203	-0.149099	-0.315211	0.338708	-0.0183792	0	0	-0.286915	-0.00640748	0.14963	0.825308	-0.241474	0.483292	1.16892	1.5708	0	0	0.659241	-0.235241	-0.0970213	1.63078	0.872657	0	0
5.05	2.66658	1.46911	-1.26081	0.752628	1.37722	0.937159	-0.321481	0.095475	-0.0845392	0.00151218	0.0261245	0	0	0.320929	-0.139929	-0.312025	0.293564	-0.0174539	0	0	-0.284944	-0.00638906	0.147883	0.827319	-0.240535	0.481506	1.16573	1.5708	0	0	0.660799	-0.234685	-0.0966235	1.63069	0.872657	0	0
5.06	2.66178	1.47006	-1.25453	0.752223	1.38369	0.935882	-0.330513	0.0946701	-0.0854515	0	0.031388	0	0	0.31262	-0.130575	-0.306198	0.248888	-0.0179604	0	0	-0.282851	-0.00622434	0.145784	0.829578	-0.239842	0.480276	1.16228	1.5708	0	0	0.662127	-0.234138	-0.0966815	1.63072	0.872657	0	0
5.07	2.65241	1.47092	-1.24361	0.751814	1.39021	0.934509	-0.339342	0.0944588	-0.086975	0	0.0368189	0	0	0.303325	-0.12168	-0.296787	0.204885	-0.0199791	0	0	-0.280585	-0.00560438	0.143633	0.83201	-0.239452	0.479411	1.15895	1.5708	0	0	0.663104	-0.233659	-0.0968108	1.63139	0.872657	0	0
5.08	2.63874	1.4715	-1.22857	0.751387	1.39678	0.933057	-0.347975	0.0945834	-0.0884096	0	0.0426015	0	0	0.293912	-0.114218	-0.285911	0.164246	-0.0220845	0	0	-0.278354	-0.00451408	0.141816	0.834136	-0.239455	0.478316	1.1565	1.5708	0	0	0.663824	-0.233045	-0.096891	1.63287	0.872657	0	0
5.09	2.62247	1.47172	-1.21106	0.75099	1.40344	0.931516	-0.356628	0.0950326	-0.0899143	0	0.0489293	0	0	0.285351	-0.108546	-0.276104	0.129786	-0.0233761	0	0	-0.276105	-0.00319797	0.140233	0.835765	-0.239676	0.477008	1.15493	1.5708	0	0	0.664341	-0.232435	-0.0968296	1.63525	0.872657	0	0
5.1	2.60534	1.47188	-1.19287	0.750613	1.41023	0.929877	-0.364996	0.0954313	-0.0913285	0	0.0558185	0	0	0.278434	-0.1042	-0.268768	0.102727	-0.0231614	0	0	-0.273535	-0.00189796	0.138884	0.837157	-0.240119	0.475606	1.15364	1.5708	0	0	0.664565	-0.231778	-0.0966964	1.63767	0.872657	0	0
5.11	2.58561	1.47213	-1.17256	0.750276	1.41707	0.928148	-0.372247	0.0957169	-0.0920746	0	0.063234	0	0	0.273934	-0.10141	-0.263622	0.0843719	-0.0209713	0	0	-0.270561	-0.000531345	0.138068	0.838312	-0.24078	0.474096	1.15262	1.5708	0	0	0.664766	-0.231174	-0.0962379	1.6397	0.872657	0	0
5.12	2.56845	1.47177	-1.1552	0.750005	1.42397	0.926432	-0.379149	0.0957034	-0.0922357	0	0.0714492	0	0	0.27012	-0.0998306	-0.258503	0.0731954	-0.0181592	0	0	-0.268139	0.000618774	0.137801	0.839168	-0.241501	0.471942	1.15191	1.5708	0	0	0.665307	-0.230585	-0.0950794	1.64172	0.872657	0	0
5.13	2.55322	1.47126	-1.14036	0.749788	1.43095	0.924708	-0.385046	0.0953068	-0.092258	0	0.0803287	0	0	0.269096	-0.0997787	-0.257374	0.0726857	-0.0151326	0	0	-0.265635	0.00143428	0.138215	0.839563	-0.242574	0.469954	1.15161	1.5708	0	0	0.66601	-0.229726	-0.093918	1.64318	0.872657	0	0
5.14	2.54847	1.47017	-1.13669	0.74962	1.43806	0.923101	-0.39059	0.0937581	-0.0937046	0.0042742	0.0903066	0	0	0.268815	-0.100069	-0.259219	0.0805864	-0.0170586	0	0	-0.263935	0.00116734	0.139318	0.839271	-0.243776	0.46699	1.15189	1.5708	0	0	0.666747	-0.228817	-0.0922345	1.64567	0.872657	0	0
5.15	2.55039	1.4686	-1.14018	0.749493	1.44529	0.921549	-0.395463	0.0914302	-0.0973579	0.0145293	0.101593	0	0	0.269363	-0.100882	-0.26348	0.0961337	-0.0222442	0	0	-0.262709	0.000220781	0.141035	0.838385	-0.245156	0.463378	1.15262	1.5708	0	0	0.667474	-0.227847	-0.090181	1.64879	0.872657	0	0
5.16	2.55359	1.46682	-1.14572	0.749376	1.4527	0.920017	-0.399743	0.0885341	-0.101609	0.0267253	0.113565	0	0	0.269962	-0.102302	-0.270635	0.114539	-0.0297584	0	0	-0.261275	-0.00081656	0.14366	0.836854	-0.246889	0.459751	1.15386	1.5708	0	0	0.667595	-0.226683	-0.0877989	1.65164	0.872657	0	0
5.17	2.56244	1.4647	-1.1575	0.749307	1.46023	0.918582	-0.404201	0.0849109	-0.106038	0.0399622	0.125488	0	0	0.269001	-0.103667	-0.280319	0.131021	-0.041865	0	0	-0.260088	-0.00247527	0.147107	0.834658	-0.248918	0.455904	1.15535	1.5708	0	0	0.667378	-0.22529	-0.08533	1.65399	0.872657	0	0
5.18	2.58702	1.46231	-1.18527	0.749206	1.46781	0.917392	-0.409308	0.0794084	-0.11068	0.0536971	0.136925	0	0	0.265441	-0.103215	-0.29106	0.142767	-0.0596156	0	0	-0.25985	-0.00590353	0.150725	0.831773	-0.250817	0.451285	1.15718	1.5708	0	0	0.667115	-0.223753	-0.0831519	1.65604	0.872657	0	0
5.19	2.62772	1.46012	-1.22868	0.748994	1.47539	0.916445	-0.414326	0.0718807	-0.116357	0.0681375	0.147673	0	0	0.260706	-0.100709	-0.302033	0.151763	-0.0838332	0	0	-0.260218	-0.0113773	0.153611	0.828096	-0.252519	0.446	1.15948	1.5708	0	0	0.666895	-0.222379	-0.081122	1.65798	0.872657	0	0
